PathFileType	4	(X/Y/Z)	/Users/visionmauri/Downloads/Videos/OAW08-top_Sports2D/OAW08-top_Sports2D_m_person00.trc
DataRate	CameraRate	NumFrames	NumMarkers	Units	OrigDataRate	OrigDataStartFrame	OrigNumFrames
30.0	30.0	10	22	m	30.0	268	2144
Frame#	Time	Hip			RHip			RKnee			RAnkle			RBigToe			RSmallToe			RHeel			LHip			LKnee			LAnkle			LBigToe			LSmallToe			LHeel			Neck			Head			Nose			RShoulder			RElbow			RWrist			LShoulder			LElbow			LWrist			
		X1	Y1	Z1	X2	Y2	Z2	X3	Y3	Z3	X4	Y4	Z4	X5	Y5	Z5	X6	Y6	Z6	X7	Y7	Z7	X8	Y8	Z8	X9	Y9	Z9	X10	Y10	Z10	X11	Y11	Z11	X12	Y12	Z12	X13	Y13	Z13	X14	Y14	Z14	X15	Y15	Z15	X16	Y16	Z16	X17	Y17	Z17	X18	Y18	Z18	X19	Y19	Z19	X20	Y20	Z20	X21	Y21	Z21	X22	Y22	Z22
268	8.937501944314825	1.4350109205960535	0.5824161355269758	0.0301	1.4106060995432979	0.5509331928486845	0.0301	1.5321432707638083	0.41663297855529474	0.129	1.6468359676808795	0.29097680583575075	0.023	1.6877734648293716	0.23078590479335	0.2179	1.6674243669789328	0.22457390005561856	0.1804	1.671825646757504	0.27660265329216605	-0.0119	1.471130800715128	0.6081727931720554	0.0301	1.5741629314611838	0.4743172713361079	0.129	1.6554134945905452	0.36382148881664456	0.023	1.7019269281144978	0.3070522953968258	0.2179	1.714662713534174	0.3217743839828263	0.1804	1.6658126867422964	0.34443315626772547	-0.0119	1.2543475044438763	0.7729152662986476	0.0008	1.1802354178312664	0.859267529035599	0.0655	1.2374745574804404	0.7915538921566644	0.1076	1.2066929188337698	0.7092195222420258	-0.01275	1.2762408026278993	0.5825268847902285	0.0702	1.337524463961227	0.4706817870512219	0.1076	1.3254748647687364	0.816401677413763	-0.01275	1.4456707661739034	0.7363047563208355	0.0702	1.5233570006990067	0.6443697386065607	0.1076
269	8.970850832166745	1.4353223965897635	0.5793146405653126	0.0301	1.4112736736102043	0.5466907806063229	0.0301	1.5333926510194673	0.4118070920546285	0.129	1.6488834582760117	0.28747666037577796	0.023	1.693741882068711	0.22874881978269193	0.2179	1.6708143944629341	0.22010350222044336	0.1804	1.6735973494996268	0.2741718956793619	-0.0119	1.4722600752248236	0.6041662244430952	0.0301	1.5771144035761107	0.4759486486510107	0.129	1.6516891056799796	0.37197240166888407	0.023	1.7022673287067445	0.3088440728290118	0.2179	1.7154370579424694	0.3255130160447674	0.1804	1.6565878413253674	0.35562367577140575	-0.0119	1.25308873892927	0.7703675259693656	0.0008	1.179556452331054	0.8565050009389616	0.0655	1.2381033494439058	0.7874202061398469	0.1076	1.2057752762446807	0.7065075839334248	-0.01275	1.2769325680582744	0.5794802861644659	0.0702	1.3389379041873852	0.46743765483508537	0.1076	1.3240758473772207	0.815235096565679	-0.01275	1.444710617064389	0.7345587352279938	0.0702	1.5240959064896629	0.6430160741753861	0.1076
270	9.004199720018667	1.4353757507888893	0.5755455281168547	0.0301	1.4111700487763987	0.5419162171423415	0.0301	1.5349271788849754	0.40630788411126	0.129	1.6498172835931921	0.2844589371155688	0.023	1.6968077565491333	0.22874208898014498	0.2179	1.6718477388065858	0.2182155641341943	0.1804	1.6746218229747138	0.2717525053917317	-0.0119	1.4726771537926757	0.6004054160345811	0.0301	1.580725901152361	0.4757350613671026	0.129	1.6484850967637033	0.37901220233971006	0.023	1.7028424572690541	0.31023981266205775	0.2179	1.7154624696191085	0.329356206086206	0.1804	1.6482777239666488	0.3666861320317668	-0.0119	1.251263157694758	0.769654895238362	0.0008	1.1769746958946354	0.8566064305119006	0.0655	1.238591455171285	0.7844326906967678	0.1076	1.2052800717958292	0.7039312137748762	-0.01275	1.2772484079950173	0.5754964016762366	0.0702	1.3401985142180677	0.46296711856956535	0.1076	1.3237434072264687	0.8144635701112186	-0.01275	1.444899007843119	0.7322820500752542	0.0702	1.525825652136167	0.6413768105314049	0.1076
271	9.037548607870587	1.4356999334458111	0.5719995836290938	0.0301	1.4106095138174692	0.5379838826168192	0.0301	1.5360172172107742	0.40194481367596707	0.129	1.6502083487831778	0.2829448200442088	0.023	1.696766057146642	0.22927049728201723	0.2179	1.6710292879171882	0.21812027077765722	0.1804	1.6757138116519654	0.2704507719945152	-0.0119	1.4721482960263947	0.5983193225412561	0.0301	1.582722065504804	0.47397145495625803	0.129	1.6484492129786232	0.38226535657840205	0.023	1.705077624826026	0.31192481752697715	0.2179	1.7166219608861837	0.3325885720863614	0.1804	1.646455697388516	0.3727760441456663	-0.0119	1.249315113758821	0.7700291070870862	0.0008	1.1762222715688972	0.8555396255475417	0.0655	1.2402943562632724	0.7820961426838074	0.1076	1.2046396442573426	0.7025519948382476	-0.01275	1.2777146687512437	0.5714945919742738	0.0702	1.342334602752789	0.45941123579272364	0.1076	1.324070914944211	0.8139506539522564	-0.01275	1.4462665080406905	0.730085180828096	0.0702	1.528741705396465	0.6402551332416543	0.1076
272	9.070897495722509	1.4361585881460124	0.5698468017231239	0.0301	1.4103923139676495	0.5354853774999788	0.0301	1.5372865721500462	0.3989976375158584	0.129	1.6506837434042567	0.2821014025925998	0.023	1.6959626866403104	0.2285137544472928	0.2179	1.6702564589849425	0.21743887973106174	0.1804	1.6760551038804428	0.26987319576298757	-0.0119	1.4718508852140462	0.5971488286788665	0.0301	1.5836187718837809	0.47105269579604175	0.129	1.6523371521576313	0.380703846203568	0.023	1.7102190293578448	0.3122921725194703	0.2179	1.7211156948690716	0.33349824518239995	0.1804	1.6514106188142936	0.3714842457938291	-0.0119	1.2475421615084303	0.7707781064698498	0.0008	1.1747794434510272	0.855735250084867	0.0655	1.239274088962395	0.7833125216904361	0.1076	1.2035584186628374	0.7018399651181139	-0.01275	1.2781689596962462	0.568481544577409	0.0702	1.3456937510498266	0.4574287855010828	0.1076	1.3245065569214287	0.8136047952507742	-0.01275	1.447648768416278	0.7285681521264705	0.0702	1.5315343419095961	0.6400298311171064	0.1076
273	9.104246383574429	1.4368034824187363	0.5685823770041197	0.0301	1.41145439341456	0.5334311483905332	0.0301	1.539241478579755	0.39676538252194127	0.129	1.6513957187748909	0.28085277049775936	0.023	1.6962145523266483	0.2264919656876495	0.2179	1.6708631369633353	0.21567358578251378	0.1804	1.674748027097011	0.26889293018933724	-0.0119	1.473331480837631	0.5950650102559908	0.0301	1.5857950273055688	0.4670910857086676	0.129	1.6603651396289272	0.3736215529332756	0.023	1.71859931137334	0.3086211424076275	0.2179	1.7301301666198492	0.3300828371386261	0.1804	1.6617767906289587	0.36230854834260406	-0.0119	1.246289621625948	0.7713295534102829	0.0008	1.1698125010290317	0.8603293629044424	0.0655	1.2326369731911269	0.7897039997902086	0.1076	1.2024445946370108	0.7004405582374246	-0.01275	1.2780711224022163	0.5665868633731286	0.0702	1.3497234101505908	0.4565643374257031	0.1076	1.3247914641820662	0.8133986501854196	-0.01275	1.4482858347189362	0.7279244138199996	0.0702	1.5338359393454837	0.6398350484143959	0.1076
274	9.13759527142635	1.4382604304170297	0.5670347961871155	0.0301	1.413264912709976	0.5313757915858831	0.0301	1.5408056673261943	0.3949404931170189	0.129	1.6518666700643392	0.27960788621807736	0.023	1.6966792443455339	0.22493930221114253	0.2179	1.6715948177272768	0.2141652356918424	0.1804	1.6727183353553003	0.2676449208519969	-0.0119	1.4760567612620779	0.5923763905690691	0.0301	1.5901395032410353	0.4625609413629538	0.129	1.67291162298537	0.3612875211228784	0.023	1.7298680856223865	0.2999799992372042	0.2179	1.742778239856441	0.3221425143169651	0.1804	1.677488365022821	0.34652108333944104	-0.0119	1.246163269855407	0.7713363530267261	0.0008	1.1651994543428228	0.8660557447291493	0.0655	1.2259746345046423	0.7963660004302712	0.1076	1.201809364185449	0.698271130087514	-0.01275	1.278340985353989	0.5649664080338105	0.0702	1.3536782851697677	0.4569256251675026	0.1076	1.3251865974087051	0.8133818272021659	-0.01275	1.4491688482863871	0.7274725154348297	0.0702	1.5372396297045923	0.6389351577026918	0.1076
275	9.170944159278271	1.4408044186514817	0.5651859574771017	0.0301	1.4149422649154662	0.5297260805648303	0.0301	1.5415272592960176	0.393124929507931	0.129	1.6520583407041645	0.27910160107109333	0.023	1.6963324914421143	0.22471517954837875	0.2179	1.6708736775664295	0.2135109976076291	0.1804	1.6721523796499322	0.26698004699596567	-0.0119	1.4785212742970772	0.5903780848939333	0.0301	1.5959910876698515	0.45748631985538357	0.129	1.6885629636838428	0.3463687859639376	0.023	1.7430401317331643	0.28772576467203664	0.2179	1.7569691922222568	0.31126798686619916	0.1804	1.6960730464271025	0.32793348255984106	-0.0119	1.2472256134054653	0.7712254301391888	0.0008	1.165025840313749	0.8691801878880483	0.0655	1.2251897636513325	0.7993516334321457	0.1076	1.2018955024997433	0.6964059964031001	-0.01275	1.2801879646926635	0.562772431381854	0.0702	1.357393788431942	0.4588003467842791	0.1076	1.326342330287865	0.8134002540571856	-0.01275	1.4515718577150165	0.7262626690857807	0.0702	1.542213392000394	0.6381038424336573	0.1076
276	9.204293047130193	1.4433361820887147	0.563501887688124	0.0301	1.4166704472265594	0.528213252750646	0.0301	1.5426106673628563	0.3905565472981454	0.129	1.652504401553754	0.2791836128673437	0.023	1.695553924443154	0.22499722943658193	0.2179	1.6691933911053605	0.21343161979054753	0.1804	1.6739483017226529	0.26668877345721315	-0.0119	1.4803682524664266	0.5887307049810888	0.0301	1.6024092685166123	0.4516523272302447	0.129	1.7037616208421968	0.3328701420620278	0.023	1.7557813915965612	0.27491013765104605	0.2179	1.7705090441703435	0.2994265752236757	0.1804	1.7125462954287132	0.31114521461625905	-0.0119	1.248720016434543	0.771610425349461	0.0008	1.1673531257925183	0.8701568687905188	0.0655	1.2282997414707046	0.7999336377731959	0.1076	1.2026631264505325	0.6953348509038345	-0.01275	1.282751986294964	0.5605585869149278	0.0702	1.3611736432377266	0.46143145093726523	0.1076	1.3283564883375418	0.8128464395992533	-0.01275	1.4549504717367698	0.7245597522422353	0.0702	1.5470093182781255	0.6386790918907734	0.1076
277	9.237641934982113	1.4453660489924458	0.5615115697207402	0.0301	1.4189292105963618	0.5258801257685349	0.0301	1.544903876434191	0.3874176658857652	0.129	1.6534305525217714	0.27927768711783213	0.023	1.6947681493925433	0.2248476106039416	0.2179	1.6680850796395275	0.21346288283157697	0.1804	1.6766872626601066	0.26604503936988316	-0.0119	1.4823800809958863	0.5863063124649163	0.0301	1.6085705803623553	0.44568992918597505	0.129	1.7155219498437677	0.3233837125661268	0.023	1.7651732225892318	0.2649754542120819	0.2179	1.781108796475672	0.28885041165367187	0.1804	1.7245311027092618	0.29906782109436403	-0.0119	1.250393273305495	0.7719329187778756	0.0008	1.1690292617380718	0.8702231015325472	0.0655	1.2310604878188713	0.7993367788369761	0.1076	1.2038145483143408	0.6943639129372431	-0.01275	1.284423958530534	0.5594475667390368	0.0702	1.3647971322241692	0.4636633847128031	0.1076	1.330790512324841	0.8112838858119596	-0.01275	1.4578030878704054	0.7236233585154105	0.0702	1.5502761171821895	0.6411069940279694	0.1076
